<svg aria-hidden="true" version="1.1" xmlns="http://www.w3.org/2000/svg" xmlns:xlink="http://www.w3.org/1999/xlink">
<defs>
<symbol id="icon-bubbles" viewBox="0 0 36 32">
<path d="M34 28.161c0 1.422 0.813 2.653 2 3.256v0.498c-0.332 0.045-0.671 0.070-1.016 0.070-2.125 0-4.042-0.892-5.398-2.321-0.819 0.218-1.688 0.336-2.587 0.336-4.971 0-9-3.582-9-8s4.029-8 9-8c4.971 0 9 3.582 9 8 0 1.73-0.618 3.331-1.667 4.64-0.213 0.463-0.333 0.979-0.333 1.522zM16 0c8.702 0 15.781 5.644 15.995 12.672-1.537-0.685-3.237-1.047-4.995-1.047-2.986 0-5.807 1.045-7.942 2.943-2.214 1.968-3.433 4.607-3.433 7.432 0 1.396 0.298 2.747 0.867 3.993-0.163 0.004-0.327 0.007-0.492 0.007-0.849 0-1.682-0.054-2.495-0.158-3.437 3.437-7.539 4.053-11.505 4.144v-0.841c2.142-1.049 4-2.961 4-5.145 0-0.305-0.024-0.604-0.068-0.897-3.619-2.383-5.932-6.024-5.932-10.103 0-7.18 7.163-13 16-13z"></path>
</symbol>
<symbol id="icon-spinner4" viewBox="0 0 32 32">
<path d="M6 16c0-0.381 0.022-0.756 0.063-1.126l-5.781-1.878c-0.185 0.973-0.283 1.977-0.283 3.004 0 4.601 1.943 8.748 5.052 11.666l3.571-4.916c-1.629-1.779-2.623-4.149-2.623-6.751zM26 16c0 2.602-0.994 4.972-2.623 6.751l3.571 4.916c3.109-2.919 5.052-7.065 5.052-11.666 0-1.027-0.098-2.031-0.283-3.004l-5.781 1.878c0.041 0.37 0.063 0.745 0.063 1.126zM18 6.2c2.873 0.583 5.298 2.398 6.702 4.87l5.781-1.878c-2.287-4.857-6.945-8.377-12.482-9.067v6.076zM7.298 11.070c1.403-2.471 3.829-4.286 6.702-4.87v-6.076c-5.537 0.691-10.195 4.21-12.482 9.067l5.78 1.878zM20.142 25.104c-1.262 0.575-2.665 0.896-4.142 0.896s-2.88-0.321-4.142-0.896l-3.572 4.916c2.288 1.261 4.917 1.98 7.714 1.98s5.426-0.719 7.714-1.98l-3.572-4.916z"></path>
</symbol>
<symbol id="icon-spinner8" viewBox="0 0 32 32">
<path d="M16 32c-4.274 0-8.292-1.664-11.314-4.686s-4.686-7.040-4.686-11.314c0-3.026 0.849-5.973 2.456-8.522 1.563-2.478 3.771-4.48 6.386-5.791l1.344 2.682c-2.126 1.065-3.922 2.693-5.192 4.708-1.305 2.069-1.994 4.462-1.994 6.922 0 7.168 5.832 13 13 13s13-5.832 13-13c0-2.459-0.69-4.853-1.994-6.922-1.271-2.015-3.066-3.643-5.192-4.708l1.344-2.682c2.615 1.31 4.824 3.313 6.386 5.791 1.607 2.549 2.456 5.495 2.456 8.522 0 4.274-1.664 8.292-4.686 11.314s-7.040 4.686-11.314 4.686z"></path>
</symbol>
<symbol id="icon-spinner9" viewBox="0 0 32 32">
<path d="M16 0c-8.711 0-15.796 6.961-15.995 15.624 0.185-7.558 5.932-13.624 12.995-13.624 7.18 0 13 6.268 13 14 0 1.657 1.343 3 3 3s3-1.343 3-3c0-8.837-7.163-16-16-16zM16 32c8.711 0 15.796-6.961 15.995-15.624-0.185 7.558-5.932 13.624-12.995 13.624-7.18 0-13-6.268-13-14 0-1.657-1.343-3-3-3s-3 1.343-3 3c0 8.837 7.163 16 16 16z"></path>
</symbol>
</defs>
</svg>
