<svg aria-hidden="true" style="position: absolute; width: 0; height: 0; overflow: hidden;" version="1.1" xmlns="http://www.w3.org/2000/svg" xmlns:xlink="http://www.w3.org/1999/xlink">
    <defs>
        <symbol id="icon-book" viewBox="0 0 32 32">
        <title>book</title>
            <path d="M31.065 25.89l-14.471 5.99c-0.175 0.076-0.38 0.12-0.594 0.12s-0.419-0.044-0.604-0.124l0.010 0.004-14.471-5.99c-0.553-0.229-0.935-0.765-0.935-1.39 0-0 0-0 0-0v0-23c0-0.828 0.672-1.5 1.5-1.5v0c0.206 0 0.403 0.040 0.583 0.114l-0.010-0.004c0.001 0.006 0.006 0.010 0.012 0.010 0 0 0.001-0 0.001-0h-0l13.914 5.76 13.911-5.76c0 0 0.001 0 0.001 0 0.006 0 0.011-0.004 0.012-0.010v-0c0.17-0.070 0.367-0.11 0.573-0.11h0c0.828 0 1.5 0.672 1.5 1.5v0 23c0 0 0 0.001 0 0.002 0 0.624-0.381 1.158-0.922 1.385l-0.010 0.004zM14.5 8.5l-11.5-4.76v19.76l11.5 4.76v-19.76zM29 3.74l-11.5 4.76v19.76l11.5-4.76v-19.76zM19.879 10.63l5.5-2.5c0.183-0.081 0.396-0.129 0.62-0.13h0c0.003-0 0.007-0 0.010-0 0.828 0 1.5 0.672 1.5 1.5 0 0.607-0.361 1.13-0.88 1.366l-0.009 0.004-5.5 2.5c-0.183 0.081-0.396 0.128-0.62 0.13h-0.001c-0.003 0-0.007 0-0.010 0-0.828 0-1.5-0.672-1.5-1.5 0-0.607 0.361-1.13 0.88-1.366l0.009-0.004zM19.879 16.13v0l5.5-2.5c0.183-0.081 0.396-0.129 0.62-0.13h0c0.003-0 0.007-0 0.010-0 0.828 0 1.5 0.672 1.5 1.5 0 0.607-0.361 1.13-0.88 1.366l-0.009 0.004-5.5 2.5v-0.010c-0.182 0.088-0.395 0.14-0.62 0.14-0 0-0 0-0.001 0h0c-0.003 0-0.007 0-0.010 0-0.828 0-1.5-0.672-1.5-1.5 0-0.607 0.361-1.13 0.88-1.366l0.009-0.004zM19.879 21.63v0l5.5-2.5c0.183-0.081 0.396-0.129 0.62-0.13h0c0.003-0 0.007-0 0.010-0 0.828 0 1.5 0.672 1.5 1.5 0 0.607-0.361 1.13-0.88 1.366l-0.009 0.004-5.5 2.5c-0.183 0.081-0.396 0.128-0.62 0.13h-0.001c-0.003 0-0.007 0-0.010 0-0.828 0-1.5-0.672-1.5-1.5 0-0.607 0.361-1.13 0.88-1.366l0.009-0.004zM6 8c0.225 0.002 0.438 0.049 0.631 0.134l-0.010-0.004 5.5 2.5c0.528 0.24 0.889 0.763 0.889 1.37 0 0.828-0.672 1.5-1.5 1.5-0.004 0-0.007 0-0.011-0h0.001c-0.225-0.001-0.438-0.049-0.631-0.134l0.010 0.004-5.5-2.5c-0.528-0.24-0.889-0.763-0.889-1.37 0-0.828 0.672-1.5 1.5-1.5 0.004 0 0.007 0 0.011 0h-0.001zM6 13.5c0.225 0.002 0.438 0.049 0.631 0.134l-0.010-0.004 5.5 2.5c0.528 0.24 0.889 0.763 0.889 1.37 0 0.828-0.672 1.5-1.5 1.5-0.004 0-0.007 0-0.011-0h0.001c-0.001 0-0.001 0-0.002 0-0.225 0-0.438-0.052-0.628-0.144l0.009 0.004v0.010l-5.5-2.5c-0.528-0.24-0.889-0.763-0.889-1.37 0-0.828 0.672-1.5 1.5-1.5 0.004 0 0.007 0 0.011 0h-0.001zM6 19c0.225 0.002 0.438 0.049 0.631 0.134l-0.010-0.004 5.5 2.5c0.528 0.24 0.889 0.763 0.889 1.37 0 0.828-0.672 1.5-1.5 1.5-0.004 0-0.007 0-0.011-0h0.001c-0.225-0.001-0.438-0.049-0.631-0.134l0.010 0.004-5.5-2.5c-0.528-0.24-0.889-0.763-0.889-1.37 0-0.828 0.672-1.5 1.5-1.5 0.004 0 0.007 0 0.011 0h-0.001z"></path>
        </symbol>
    </defs>
</svg>
