<svg aria-hidden="true" style="position: absolute; width: 0; height: 0; overflow: hidden;" version="1.1" xmlns="http://www.w3.org/2000/svg" xmlns:xlink="http://www.w3.org/1999/xlink">
    <defs>
        <symbol id="icon-cart" viewBox="0 0 32 32">
        <title>cart</title>
            <path d="M31.182 9.067v0l-4.409 9.778c-0.22 0.488-0.689 0.829-1.241 0.86l-0.004 0-12.658 0.844 0.729 2.092h13.796c1.62 0 2.933 1.313 2.933 2.933s-1.313 2.933-2.933 2.933c-1.619 0-2.932-1.312-2.933-2.931v-0h-13.689c-0.001 1.619-1.314 2.932-2.933 2.932s-2.933-1.313-2.933-2.933 1.313-2.933 2.933-2.933h2.649l-5.653-16.133h-3.36c-0.81 0-1.467-0.657-1.467-1.467s0.657-1.467 1.467-1.467h4.409c0.636 0.005 1.177 0.409 1.383 0.975l0.003 0.010 0.853 2.441h21.707c0.002 0 0.005-0 0.007-0 0.81 0 1.467 0.656 1.468 1.467v0c-0.005 0.217-0.050 0.422-0.129 0.61l0.004-0.011zM9.156 9.932l2.702 7.746 12.604-0.841 3.111-6.905h-18.418z"></path>
        </symbol>
    </defs>
</svg>
