<svg aria-hidden="true" style="position: absolute; width: 0; height: 0; overflow: hidden;" version="1.1" xmlns="http://www.w3.org/2000/svg" xmlns:xlink="http://www.w3.org/1999/xlink">
    <defs>
        <symbol id="icon-graph" viewBox="0 0 32 32">
        <title>graph</title>
            <path d="M30.5 32h-29c-0.828 0-1.5-0.672-1.5-1.5v0-29c0-0.828 0.672-1.5 1.5-1.5v0h29c0.828 0 1.5 0.672 1.5 1.5v0 29c0 0.828-0.672 1.5-1.5 1.5v0zM29 3h-26v26h26v-26zM5.215 16.24v0l4-2.5c0.225-0.138 0.497-0.22 0.789-0.22 0.311 0 0.601 0.093 0.842 0.253l-0.006-0.004h0.006l6.631 4.42 7.638-5.4c0.244-0.179 0.55-0.286 0.881-0.286 0.829 0 1.501 0.672 1.501 1.501 0 0.498-0.242 0.939-0.615 1.212l-0.004 0.003-8.5 6c-0.242 0.18-0.547 0.289-0.878 0.29h-0c-0.323-0.003-0.622-0.107-0.865-0.283l0.004 0.003-6.657-4.43-3.135 1.95c-0.236 0.169-0.529 0.27-0.847 0.27h-0c-0.001 0-0.002 0-0.003 0-0.828 0-1.5-0.672-1.5-1.5 0-0.539 0.284-1.012 0.712-1.276l0.006-0.004z"></path>
        </symbol>
    </defs>
</svg>
