<svg aria-hidden="true" style="position: absolute; width: 0; height: 0; overflow: hidden;" version="1.1" xmlns="http://www.w3.org/2000/svg" xmlns:xlink="http://www.w3.org/1999/xlink">
    <defs>
        <symbol id="icon-home" viewBox="0 0 32 32">
        <title>home</title>
            <path d="M32 16.5c0 0.002 0 0.004 0 0.006 0 0.825-0.668 1.493-1.493 1.493-0.398 0-0.76-0.156-1.028-0.41l0.001 0.001v0.010l-13.477-13.48-13.446 13.45c-0.272 0.264-0.643 0.428-1.053 0.43h-0c-0.828 0-1.5-0.672-1.5-1.5v0c0-0.002-0-0.005-0-0.007 0-0.422 0.177-0.803 0.46-1.072l0.001-0.001 14.458-14.46c0.274-0.283 0.657-0.459 1.081-0.46h0.092c0.023 0 0.045 0.010 0.068 0.010v0c0.371 0.040 0.696 0.213 0.932 0.469l0.001 0.001 5.9 5.9v-1.38c0-0.828 0.672-1.5 1.5-1.5s1.5 0.672 1.5 1.5v0 4.38l5.6 5.6c0.25 0.265 0.403 0.623 0.403 1.017 0 0.001 0 0.002 0 0.003v-0zM29 19v10.5c0 0.828-0.672 1.5-1.5 1.5v0h-3v-12h-6v12h-14c-0.828 0-1.5-0.672-1.5-1.5v0-10.5l13-13zM13.5 19h-6v6h6v-6z"></path>
        </symbol>
    </defs>
</svg>
