<svg aria-hidden="true" style="position: absolute; width: 0; height: 0; overflow: hidden;" version="1.1" xmlns="http://www.w3.org/2000/svg" xmlns:xlink="http://www.w3.org/1999/xlink">
    <defs>
        <symbol id="icon-pinterest" viewBox="0 0 32 32">
        <title>pinterest</title>
            <path d="M13.717 20.468c-0.257 1.034-0.517 2.105-0.785 3.151-0.264 1.199-0.568 2.216-0.937 3.201l0.053-0.161c-0.642 1.665-1.491 3.102-2.536 4.372l0.021-0.027c-0.708 0.812-0.558 0.492-0.77 0.443-0.162-0.037-0.176-0.197-0.208-0.418-0.054-0.601-0.085-1.3-0.085-2.006 0-0.741 0.034-1.474 0.1-2.198l-0.007 0.093c0.113-1.575 0.371-3.035 0.762-4.44l-0.037 0.157c0.596-2.535 1.164-5.022 1.766-7.582 0.062-0.16 0.102-0.345 0.111-0.538l0-0.004c-0.254-0.61-0.44-1.317-0.525-2.055l-0.003-0.037c-0.025-0.219-0.040-0.473-0.040-0.731 0-0.593 0.077-1.168 0.222-1.716l-0.011 0.047c0.264-1.304 1.138-2.36 2.306-2.87l0.026-0.010c0.259-0.090 0.557-0.142 0.867-0.142 0.464 0 0.901 0.116 1.283 0.322l-0.014-0.007c0.547 0.332 0.939 0.874 1.065 1.512l0.002 0.014c0.051 0.281 0.080 0.605 0.080 0.936 0 0.494-0.065 0.973-0.188 1.428l0.009-0.038c-0.329 1.502-0.761 2.634-1.153 4.074-0.178 0.465-0.282 1.003-0.282 1.565 0 0.234 0.018 0.463 0.052 0.687l-0.003-0.025c0.146 0.654 0.521 1.203 1.035 1.57l0.008 0.005c0.496 0.359 1.116 0.574 1.786 0.574 0.075 0 0.15-0.003 0.224-0.008l-0.010 0.001c1.363-0.125 2.534-0.855 3.253-1.917l0.010-0.015c1.151-1.617 1.899-3.593 2.059-5.734l0.002-0.038c0.067-0.52 0.106-1.121 0.106-1.73 0-0.261-0.007-0.521-0.021-0.779l0.002 0.036c-0.058-1.457-0.571-2.785-1.399-3.856l0.012 0.016c-0.791-0.971-1.842-1.702-3.046-2.092l-0.046-0.013c-0.872-0.27-1.875-0.425-2.914-0.425-0.6 0-1.187 0.052-1.758 0.151l0.061-0.009c-2.653 0.405-4.854 2.043-6.028 4.3l-0.021 0.045c-0.649 1.19-1.031 2.607-1.031 4.112 0 0.030 0 0.059 0 0.089l-0-0.005c-0.002 0.051-0.003 0.111-0.003 0.171 0 1.077 0.312 2.082 0.85 2.928l-0.013-0.022c0.164 0.246 0.404 0.455 0.564 0.738 0.040 0.153 0.063 0.329 0.063 0.511 0 0.333-0.077 0.649-0.215 0.929l0.006-0.012c-0.135 0.529-0.15 1.243-0.761 1.255-0.297-0.034-0.564-0.139-0.791-0.299l0.005 0.004c-1.611-0.988-2.731-2.644-2.978-4.572l-0.003-0.031c-0.116-0.598-0.182-1.285-0.182-1.988s0.066-1.39 0.193-2.056l-0.011 0.068c0.674-3.249 2.658-5.939 5.363-7.54l0.053-0.029c1.383-0.825 3.008-1.407 4.743-1.642l0.066-0.007c0.581-0.087 1.264-0.145 1.958-0.16l0.017-0c0.169-0.009 0.366-0.013 0.565-0.013 1.722 0 3.358 0.367 4.835 1.028l-0.075-0.030c1.44 0.646 2.66 1.539 3.66 2.637l0.008 0.009c1.028 1.122 1.808 2.489 2.24 4.003l0.017 0.071c0.287 0.837 0.465 1.802 0.492 2.806l0 0.013c-0.047 1.061-0.182 2.061-0.401 3.031l0.022-0.114c-0.415 3.288-2.169 6.101-4.69 7.915l-0.034 0.023c-1.304 0.852-2.902 1.359-4.617 1.359-0.108 0-0.215-0.002-0.321-0.006l0.015 0c-0.904-0.056-1.737-0.314-2.469-0.729l0.028 0.015c-0.68-0.359-1.231-0.883-1.613-1.52l-0.010-0.018z"></path>
        </symbol>
    </defs>
</svg>
