<svg aria-hidden="true" style="position: absolute; width: 0; height: 0; overflow: hidden;" version="1.1" xmlns="http://www.w3.org/2000/svg" xmlns:xlink="http://www.w3.org/1999/xlink">
    <defs>
        <symbol id="icon-computer" viewBox="0 0 32 32">
        <title>computer</title>
            <path d="M30.452 25.29h-9.806v2.581l2.065 2.065v0.516h-13.419v-0.516l2.065-2.065v-2.581h-9.806c-0.855 0-1.548-0.693-1.548-1.548v0-20.645c0-0.855 0.693-1.548 1.548-1.548v0h28.903c0.855 0 1.548 0.693 1.548 1.548v0 20.645c0 0.855-0.693 1.548-1.548 1.548v0zM29.935 3.613h-27.871v17.548h27.871v-17.548zM12.903 10.839c0.427 0.001 0.814 0.174 1.094 0.454l0.97 0.97 3.035-3.035c0.283-0.304 0.686-0.493 1.133-0.493 0.855 0 1.548 0.693 1.548 1.548 0 0.447-0.189 0.849-0.492 1.132l-0.001 0.001-4.129 4.129c-0.28 0.28-0.667 0.453-1.094 0.453s-0.814-0.173-1.094-0.453l-2.065-2.065c-0.28-0.28-0.453-0.667-0.453-1.094 0-0.855 0.692-1.548 1.547-1.548h0z"></path>
        </symbol>
    </defs>
</svg>
