<svg aria-hidden="true" style="position: absolute; width: 0; height: 0; overflow: hidden;" version="1.1" xmlns="http://www.w3.org/2000/svg" xmlns:xlink="http://www.w3.org/1999/xlink">
    <defs>
        <symbol id="icon-twitter" viewBox="0 0 32 32">
        <title>twitter</title>
            <path d="M21.439 3.089c0.096-0.005 0.209-0.008 0.323-0.008 1.879 0 3.576 0.781 4.784 2.036l0.002 0.002c1.241-0.206 2.354-0.597 3.368-1.148l-0.056 0.028 0.804-0.443c-0.407 1.229-1.133 2.261-2.080 3.031l-0.012 0.009c-0.205 0.195-0.439 0.363-0.693 0.497l-0.017 0.008v0.012c1.354-0.145 2.592-0.494 3.734-1.015l-0.075 0.031v0.012c-0.611 0.969-1.338 1.797-2.175 2.497l-0.017 0.014c-0.336 0.271-0.673 0.542-1.009 0.8 0.010 0.224 0.015 0.487 0.015 0.751 0 1.205-0.114 2.384-0.333 3.526l0.019-0.117c-1.615 7.249-5.893 12.172-12.663 14.289-1.607 0.478-3.453 0.753-5.363 0.753-1.339 0-2.647-0.135-3.91-0.392l0.125 0.021c-1.476-0.356-2.743-0.782-3.959-1.304l0.16 0.061c-0.723-0.318-1.323-0.635-1.9-0.987l0.070 0.040c-0.19-0.111-0.378-0.234-0.567-0.345 0.431 0.058 0.93 0.091 1.436 0.091 0.221 0 0.441-0.006 0.659-0.019l-0.030 0.001c0.636-0.098 1.259-0.074 1.846-0.197 1.46-0.288 2.759-0.774 3.945-1.438l-0.067 0.034c0.67-0.316 1.246-0.698 1.759-1.151l-0.008 0.007c-0.691-0.002-1.352-0.128-1.963-0.357l0.039 0.013c-1.945-0.672-3.445-2.183-4.087-4.089l-0.013-0.046c0.346 0.067 0.744 0.105 1.151 0.105 0.618 0 1.215-0.088 1.78-0.251l-0.045 0.011c-0.804-0.111-1.521-0.413-2.126-0.858l0.013 0.009c-1.836-1.097-3.047-3.074-3.047-5.334 0-0.067 0.001-0.135 0.003-0.202l-0 0.010c0.222 0.098 0.442 0.209 0.662 0.308 0.389 0.163 0.844 0.296 1.316 0.376l0.037 0.005c0.174 0.063 0.376 0.099 0.585 0.099 0.105 0 0.209-0.009 0.309-0.027l-0.011 0.002h-0.032c-0.325-0.369-0.855-0.628-1.183-1.034-1.011-1.154-1.628-2.676-1.628-4.341 0-0.538 0.064-1.061 0.186-1.562l-0.009 0.045c0.178-0.642 0.415-1.202 0.713-1.722l-0.019 0.036c0.011 0 0.021 0.012 0.032 0.012 0.173 0.255 0.365 0.477 0.581 0.674l0.003 0.003c0.572 0.689 1.203 1.295 1.896 1.826l0.028 0.020c2.201 1.802 4.86 3.131 7.773 3.791l0.127 0.024c0.867 0.229 1.865 0.367 2.893 0.381l0.009 0c-0.114-0.439-0.179-0.942-0.179-1.461 0-0.562 0.077-1.106 0.22-1.622l-0.010 0.042c0.489-1.962 1.841-3.534 3.618-4.316l0.041-0.016c0.409-0.18 0.889-0.333 1.388-0.435l0.047-0.008c0.261-0.037 0.524-0.062 0.786-0.098z"></path>
        </symbol>
    </defs>
</svg>
