<!-- <svg version="1.1" xmlns="http://www.w3.org/2000/svg" xmlns:xlink="http://www.w3.org/1999/xlink"><defs/><g>
<path d="M 31.000038146972656 24.99959671497345 C 31.000038146972656 24.99959671497345 23.500038146972656 24.99959671497345 23.500038146972656 24.99959671497345 C 23.500038146972656 24.99959671497345 21.499954223632812 24.99959671497345 21.499954223632812 24.99959671497345 C 21.499954223632812 24.99959671497345 21.499954223632812 27.49942946434021 21.499954223632812 27.49942946434021 C 21.499954223632812 27.49942946434021 23.500038146972656 29.499778985977173 23.500038146972656 29.499778985977173 C 23.500038146972656 29.499778985977173 23.500038146972656 29.999866366386414 23.500038146972656 29.999866366386414 C 23.500038146972656 29.999866366386414 10.500007629394531 29.999866366386414 10.500007629394531 29.999866366386414 C 10.500007629394531 29.999866366386414 10.500007629394531 29.499778985977173 10.500007629394531 29.499778985977173 C 10.500007629394531 29.499778985977173 12.499977111816406 27.49942946434021 12.499977111816406 27.49942946434021 C 12.499977111816406 27.49942946434021 12.499977111816406 24.99959671497345 12.499977111816406 24.99959671497345 C 12.499977111816406 24.99959671497345 10.500007629394531 24.99959671497345 10.500007629394531 24.99959671497345 C 10.500007629394531 24.99959671497345 3.0000076293945312 24.99959671497345 3.0000076293945312 24.99959671497345 C 2.17156982421875 24.99959671497345 1.500030517578125 24.327929973602295 1.500030517578125 23.499334573745728 C 1.500030517578125 23.499334573745728 1.500030517578125 3.4996153116226196 1.500030517578125 3.4996153116226196 C 1.500030517578125 2.671170949935913 2.17156982421875 1.9999573230743408 3.0000076293945312 1.9999573230743408 C 3.0000076293945312 1.9999573230743408 31.000038146972656 1.9999573230743408 31.000038146972656 1.9999573230743408 C 31.828475952148438 1.9999573230743408 32.50001525878906 2.671170949935913 32.50001525878906 3.4996153116226196 C 32.50001525878906 3.4996153116226196 32.50001525878906 23.499334573745728 32.50001525878906 23.499334573745728 C 32.50001525878906 24.327929973602295 31.828475952148438 24.99959671497345 31.000038146972656 24.99959671497345 Z M 30.500045776367188 3.9997026920318604 C 30.500045776367188 3.9997026920318604 3.5 3.9997026920318604 3.5 3.9997026920318604 C 3.5 3.9997026920318604 3.5 20.999501824378967 3.5 20.999501824378967 C 3.5 20.999501824378967 30.500045776367188 20.999501824378967 30.500045776367188 20.999501824378967 C 30.500045776367188 20.999501824378967 30.500045776367188 3.9997026920318604 30.500045776367188 3.9997026920318604 Z M 13.999954223632812 10.999717712402344 C 14.414230346679688 10.999717712402344 14.789138793945312 11.167823195457458 15.060592651367188 11.438936710357666 C 15.060592651367188 11.438936710357666 15.060592651367188 11.438936710357666 15.060592651367188 11.438936710357666 C 15.060592651367188 11.438936710357666 15.999923706054688 12.37839412689209 15.999923706054688 12.37839412689209 C 15.999923706054688 12.37839412689209 18.93933868408203 9.439191341400146 18.93933868408203 9.439191341400146 C 18.93933868408203 9.439191341400146 18.93933868408203 9.439191341400146 18.93933868408203 9.439191341400146 C 19.210792541503906 9.167473673820496 19.58570098876953 8.999972343444824 19.999977111816406 8.999972343444824 C 20.828414916992188 8.999972343444824 21.499954223632812 9.671034932136536 21.499954223632812 10.499630331993103 C 21.499954223632812 10.913928031921387 21.332069396972656 11.288804769515991 21.06061553955078 11.560522437095642 C 21.06061553955078 11.560522437095642 21.06061553955078 11.560522437095642 21.06061553955078 11.560522437095642 C 21.06061553955078 11.560522437095642 17.06067657470703 15.560617327690125 17.06067657470703 15.560617327690125 C 17.06067657470703 15.560617327690125 17.06067657470703 15.560617327690125 17.06067657470703 15.560617327690125 C 16.789222717285156 15.831881880760193 16.414199829101562 15.999987363815308 15.999923706054688 15.999987363815308 C 15.585762023925781 15.999987363815308 15.210739135742188 15.831881880760193 14.939285278320312 15.560617327690125 C 14.939285278320312 15.560617327690125 14.939285278320312 15.560617327690125 14.939285278320312 15.560617327690125 C 14.939285278320312 15.560617327690125 12.939315795898438 13.560267806053162 12.939315795898438 13.560267806053162 C 12.939315795898438 13.560267806053162 12.939315795898438 13.560267806053162 12.939315795898438 13.560267806053162 C 12.667861938476562 13.289154291152954 12.499977111816406 12.913522362709045 12.499977111816406 12.499979853630066 C 12.499977111816406 11.671384453773499 13.171630859375 10.999717712402344 13.999954223632812 10.999717712402344 Z"/>
</g></svg> -->


<svg aria-hidden="true" style="position: absolute; width: 0; height: 0; overflow: hidden;" version="1.1" xmlns="http://www.w3.org/2000/svg" xmlns:xlink="http://www.w3.org/1999/xlink">
    <defs>
        <symbol id="icon-COMPUTER-_-OK" viewBox="0 0 32 32">
        <title>computer</title>
            <path d="M30.452 25.29h-9.806v2.581l2.065 2.065v0.516h-13.419v-0.516l2.065-2.065v-2.581h-9.806c-0.855 0-1.548-0.693-1.548-1.548v0-20.645c0-0.855 0.693-1.548 1.548-1.548v0h28.903c0.855 0 1.548 0.693 1.548 1.548v0 20.645c0 0.855-0.693 1.548-1.548 1.548v0zM29.935 3.613h-27.871v17.548h27.871v-17.548zM12.903 10.839c0.427 0.001 0.814 0.174 1.094 0.454l0.97 0.97 3.035-3.035c0.283-0.304 0.686-0.493 1.133-0.493 0.855 0 1.548 0.693 1.548 1.548 0 0.447-0.189 0.849-0.492 1.132l-0.001 0.001-4.129 4.129c-0.28 0.28-0.667 0.453-1.094 0.453s-0.814-0.173-1.094-0.453l-2.065-2.065c-0.28-0.28-0.453-0.667-0.453-1.094 0-0.855 0.692-1.548 1.547-1.548h0z"></path>
        </symbol>
    </defs>
</svg>
