<!-- <svg version="1.1" xmlns="http://www.w3.org/2000/svg" xmlns:xlink="http://www.w3.org/1999/xlink"><defs/><g>
<path d=" M 18.316757202148438 15.982783198356628 C 18.615333557128906 16.28138566017151 18.7999267578125 16.693870902061462 18.7999267578125 17.149855136871338 C 18.7999267578125 18.061219453811646 18.06121063232422 18.79964506626129 17.15003204345703 18.79964506626129 C 16.69432830810547 18.79964506626129 16.281768798828125 18.614925384521484 15.983192443847656 18.316322922706604 C 15.983192443847656 18.316322922706604 15.983192443847656 18.316322922706604 15.983192443847656 18.316322922706604 C 15.983192443847656 18.316322922706604 11.147491455078125 13.480533838272095 11.147491455078125 13.480533838272095 C 10.165130615234375 14.061124563217163 9.023468017578125 14.399601101875305 7.799980163574219 14.399601101875305 C 4.1549224853515625 14.399601101875305 1.1999435424804688 11.444992423057556 1.1999435424804688 7.7996861934661865 C 1.1999435424804688 4.154833078384399 4.1549224853515625 1.199620246887207 7.799980163574219 1.199620246887207 C 11.445037841796875 1.199620246887207 14.39990234375 4.154833078384399 14.39990234375 7.7996861934661865 C 14.39990234375 9.02324640750885 14.0611572265625 10.164792895317078 13.480941772460938 11.14699411392212 C 13.480941772460938 11.14699411392212 18.316757202148438 15.982783198356628 18.316757202148438 15.982783198356628 C 18.316757202148438 15.982783198356628 18.316757202148438 15.982783198356628 18.316757202148438 15.982783198356628 Z M 7.799980163574219 2.8494101762771606 C 5.06610107421875 2.8494101762771606 2.8499526977539062 5.065593242645264 2.8499526977539062 7.7996861934661865 C 2.8499526977539062 10.533628106117249 5.06610107421875 12.749811172485352 7.799980163574219 12.749811172485352 C 10.533744812011719 12.749811172485352 12.749893188476562 10.533628106117249 12.749893188476562 7.7996861934661865 C 12.749893188476562 5.065593242645264 10.533744812011719 2.8494101762771606 7.799980163574219 2.8494101762771606 Z"/>
</g></svg> -->

<svg aria-hidden="true" style="position: absolute; width: 0; height: 0; overflow: hidden;" version="1.1" xmlns="http://www.w3.org/2000/svg" xmlns:xlink="http://www.w3.org/1999/xlink">
    <defs>
        <symbol id="icon-MAGNIFYING-GLASS" viewBox="0 0 32 32">
        <title>glass</title>
            <path d="M31.101 26.862c0.541 0.543 0.876 1.292 0.876 2.119 0 1.657-1.343 3-3 3-0.83 0-1.581-0.337-2.124-0.881l-0-0-8.769-8.78c-1.753 1.056-3.87 1.68-6.132 1.68-6.645 0-12.032-5.387-12.032-12.032s5.387-12.032 12.032-12.032c6.645 0 12.032 5.387 12.032 12.032 0 2.255-0.62 4.365-1.7 6.169l0.030-0.055 8.788 8.78zM12.001 3.016c-4.963 0-8.987 4.024-8.987 8.987s4.024 8.987 8.987 8.987c4.963 0 8.987-4.024 8.987-8.987v0c-0.003-4.962-4.025-8.984-8.987-8.987h-0z"></path>
        </symbol>
</svg>
