<!-- <svg version="1.1" xmlns="http://www.w3.org/2000/svg" xmlns:xlink="http://www.w3.org/1999/xlink"><defs/><g>
<path d=" M 33.99993133544922 17.499751210212708 C 33.99993133544922 18.328346610069275 33.328392028808594 18.999409198760986 32.49995422363281 18.999409198760986 C 32.10478973388672 18.999409198760986 31.748077392578125 18.84383988380432 31.48017120361328 18.594173789024353 C 31.48017120361328 18.594173789024353 31.47650909423828 18.597647666931152 31.47650909423828 18.597647666931152 C 31.47650909423828 18.597647666931152 18.038169860839844 5.159177541732788 18.038169860839844 5.159177541732788 C 18.038169860839844 5.159177541732788 18.038284301757812 5.158573389053345 18.038284301757812 5.158573389053345 C 18.038284301757812 5.158573389053345 17.99994659423828 5.122324228286743 17.99994659423828 5.122324228286743 C 17.99994659423828 5.122324228286743 17.99994659423828 5.1217200756073 17.99994659423828 5.1217200756073 C 17.99994659423828 5.1217200756073 4.553825378417969 18.56849730014801 4.553825378417969 18.56849730014801 C 4.553825378417969 18.56849730014801 4.553138732910156 18.567893147468567 4.553138732910156 18.567893147468567 C 4.282257080078125 18.83492863178253 3.9104385375976562 18.999409198760986 3.5000534057617188 18.999409198760986 C 2.6715011596679688 18.999409198760986 1.9999618530273438 18.328346610069275 1.9999618530273438 17.499751210212708 C 1.9999618530273438 17.074729800224304 2.177001953125 16.691545963287354 2.4608154296875 16.418619990348816 C 2.4608154296875 16.418619990348816 16.9188232421875 1.9601891040802002 16.9188232421875 1.9601891040802002 C 17.19176483154297 1.676539421081543 17.575027465820312 1.4995226860046387 17.99994659423828 1.4995226860046387 C 17.99994659423828 1.4995226860046387 17.99994659423828 1.4995226860046387 17.99994659423828 1.4995226860046387 C 17.99994659423828 1.4995226860046387 17.99994659423828 1.4995226860046387 17.99994659423828 1.4995226860046387 C 18.00017547607422 1.4995226860046387 18.000289916992188 1.4995226860046387 18.000518798828125 1.4995226860046387 C 18.027069091796875 1.4995226860046387 18.053390502929688 1.500126838684082 18.07959747314453 1.501939296722412 C 18.083717346191406 1.501939296722412 18.08795166015625 1.5025434494018555 18.092071533203125 1.5025434494018555 C 18.114730834960938 1.5042048692703247 18.137161254882812 1.5060173273086548 18.159591674804688 1.5084339380264282 C 18.160964965820312 1.5084339380264282 18.162452697753906 1.5084339380264282 18.1639404296875 1.5090380907058716 C 18.53106689453125 1.5489121675491333 18.858139038085938 1.7212467193603516 19.09697723388672 1.9769543409347534 C 19.09697723388672 1.9769543409347534 19.0977783203125 1.97635018825531 19.0977783203125 1.97635018825531 C 19.0977783203125 1.97635018825531 24.999954223632812 7.878317713737488 24.999954223632812 7.878317713737488 C 24.999954223632812 7.878317713737488 24.999954223632812 6.4997923374176025 24.999954223632812 6.4997923374176025 C 24.999954223632812 5.671196937561035 25.671493530273438 4.99953019618988 26.49993133544922 4.99953019618988 C 27.328369140625 4.99953019618988 27.999908447265625 5.671196937561035 27.999908447265625 6.4997923374176025 C 27.999908447265625 6.4997923374176025 27.999908447265625 10.878237843513489 27.999908447265625 10.878237843513489 C 27.999908447265625 10.878237843513489 33.59778594970703 16.476316571235657 33.59778594970703 16.476316571235657 C 33.59778594970703 16.476316571235657 33.59435272216797 16.479941487312317 33.59435272216797 16.479941487312317 C 33.84406280517578 16.747581124305725 33.99993133544922 17.10463535785675 33.99993133544922 17.499751210212708 Z M 30.999977111816406 19.999583959579468 C 30.999977111816406 19.999583959579468 30.999977111816406 24.49976623058319 30.999977111816406 24.49976623058319 C 30.999977111816406 24.49976623058319 30.999977111816406 26.49951159954071 30.999977111816406 26.49951159954071 C 30.999977111816406 26.49951159954071 30.999977111816406 30.499606490135193 30.999977111816406 30.499606490135193 C 30.999977111816406 31.3280508518219 30.32843780517578 31.999868631362915 29.5 31.999868631362915 C 29.5 31.999868631362915 26.49993133544922 31.999868631362915 26.49993133544922 31.999868631362915 C 26.49993133544922 31.999868631362915 26.49993133544922 19.999583959579468 26.49993133544922 19.999583959579468 C 26.49993133544922 19.999583959579468 20.500022888183594 19.999583959579468 20.500022888183594 19.999583959579468 C 20.500022888183594 19.999583959579468 20.500022888183594 31.999868631362915 20.500022888183594 31.999868631362915 C 20.500022888183594 31.999868631362915 6.500007629394531 31.999868631362915 6.500007629394531 31.999868631362915 C 5.67156982421875 31.999868631362915 5.000030517578125 31.3280508518219 5.000030517578125 30.499606490135193 C 5.000030517578125 30.499606490135193 5.000030517578125 26.49951159954071 5.000030517578125 26.49951159954071 C 5.000030517578125 26.49951159954071 5.000030517578125 24.49976623058319 5.000030517578125 24.49976623058319 C 5.000030517578125 24.49976623058319 5.000030517578125 19.999583959579468 5.000030517578125 19.999583959579468 C 5.000030517578125 19.999583959579468 17.99994659423828 6.999879717826843 17.99994659423828 6.999879717826843 C 17.99994659423828 6.999879717826843 30.999977111816406 19.999583959579468 30.999977111816406 19.999583959579468 Z M 15.499984741210938 19.999583959579468 C 15.499984741210938 19.999583959579468 9.499961853027344 19.999583959579468 9.499961853027344 19.999583959579468 C 9.499961853027344 19.999583959579468 9.499961853027344 26.000028371810913 9.499961853027344 26.000028371810913 C 9.499961853027344 26.000028371810913 15.499984741210938 26.000028371810913 15.499984741210938 26.000028371810913 C 15.499984741210938 26.000028371810913 15.499984741210938 19.999583959579468 15.499984741210938 19.999583959579468 Z"/>
</g></svg> -->

<svg aria-hidden="true" style="position: absolute; width: 0; height: 0; overflow: hidden;" version="1.1" xmlns="http://www.w3.org/2000/svg" xmlns:xlink="http://www.w3.org/1999/xlink">
    <defs>
        <symbol id="icon-HOME" viewBox="0 0 32 32">
        <title>home</title>
            <path d="M32 16.5c0 0.002 0 0.004 0 0.006 0 0.825-0.668 1.493-1.493 1.493-0.398 0-0.76-0.156-1.028-0.41l0.001 0.001v0.010l-13.477-13.48-13.446 13.45c-0.272 0.264-0.643 0.428-1.053 0.43h-0c-0.828 0-1.5-0.672-1.5-1.5v0c0-0.002-0-0.005-0-0.007 0-0.422 0.177-0.803 0.46-1.072l0.001-0.001 14.458-14.46c0.274-0.283 0.657-0.459 1.081-0.46h0.092c0.023 0 0.045 0.010 0.068 0.010v0c0.371 0.040 0.696 0.213 0.932 0.469l0.001 0.001 5.9 5.9v-1.38c0-0.828 0.672-1.5 1.5-1.5s1.5 0.672 1.5 1.5v0 4.38l5.6 5.6c0.25 0.265 0.403 0.623 0.403 1.017 0 0.001 0 0.002 0 0.003v-0zM29 19v10.5c0 0.828-0.672 1.5-1.5 1.5v0h-3v-12h-6v12h-14c-0.828 0-1.5-0.672-1.5-1.5v0-10.5l13-13zM13.5 19h-6v6h6v-6z"></path>
        </symbol>
    </defs>
</svg>
