<!-- <svg version="1.1" xmlns="http://www.w3.org/2000/svg" xmlns:xlink="http://www.w3.org/1999/xlink"><defs/><g>
<path d=" M 18.512603759765625 1.600960612297058 C 20.547019958496094 1.5645604133605957 21.629745483398438 2.3061578273773193 22.66394805908203 3.248484969139099 C 23.541824340820312 3.1734189987182617 24.68268585205078 2.682847023010254 25.35468292236328 2.341349720954895 C 25.572463989257812 2.222633719444275 25.790359497070312 2.102860450744629 26.008026123046875 1.9842954874038696 C 25.624305725097656 3.021323561668396 25.10382843017578 3.83315372467041 24.304000854492188 4.449540495872498 C 24.126388549804688 4.585927963256836 23.950035095214844 4.771402835845947 23.727447509765625 4.858400821685791 C 23.727447509765625 4.862025737762451 23.727447509765625 4.866707921028137 23.727447509765625 4.870936989784241 C 24.867164611816406 4.859609127044678 25.80718231201172 4.345173120498657 26.700050354003906 4.066205620765686 C 26.700050354003906 4.0704346895217896 26.700050354003906 4.074512720108032 26.700050354003906 4.079345941543579 C 26.23107147216797 4.824417233467102 25.596267700195312 5.580816388130188 24.91900634765625 6.123194456100464 C 24.645721435546875 6.34008526802063 24.37232208251953 6.557127118110657 24.099037170410156 6.774017930030823 C 24.113914489746094 7.981114983558655 24.08118438720703 9.132629990577698 23.855506896972656 10.147153377532959 C 22.543899536132812 16.042022109031677 19.068443298339844 20.044382572174072 13.566810607910156 21.758665800094604 C 11.591331481933594 22.37444841861725 8.398773193359375 22.627135276794434 6.1353607177734375 22.06512224674225 C 5.0129241943359375 21.78675889968872 3.9990921020507812 21.47199535369873 3.047515869140625 21.05648934841156 C 2.5190277099609375 20.825249910354614 2.029449462890625 20.574979662895203 1.5612716674804688 20.289366483688354 C 1.4074630737304688 20.195873856544495 1.2537689208984375 20.102230191230774 1.0999603271484375 20.008737564086914 C 1.6104812622070312 20.02414345741272 2.2077484130859375 20.164911031723022 2.7784652709960938 20.07247567176819 C 3.2948226928710938 19.988951563835144 3.8012237548828125 20.011003136634827 4.27752685546875 19.906786799430847 C 5.4656524658203125 19.645641803741455 6.52056884765625 19.30112373828888 7.4294586181640625 18.769469380378723 C 7.87005615234375 18.51149618625641 8.538619995117188 18.209268808364868 8.851730346679688 17.83726179599762 C 8.261672973632812 17.847381353378296 7.726890563964844 17.710389733314514 7.288581848144531 17.556028723716736 C 5.589591979980469 16.9564071893692 4.6007080078125 15.853073358535767 3.9572067260742188 14.196033596992493 C 4.472076416015625 14.252672910690308 5.955116271972656 14.386794805526733 6.3019866943359375 14.094082832336426 C 5.6537933349609375 14.058286786079407 5.030548095703125 13.682805895805359 4.58514404296875 13.404442548751831 C 3.2183761596679688 12.549113392829895 2.1038360595703125 11.115157008171082 2.1121902465820312 8.907885193824768 C 2.2915191650390625 8.993221759796143 2.4709625244140625 9.078407287597656 2.6502914428710938 9.162988662719727 C 2.9936141967773438 9.307834267616272 3.3426589965820312 9.385316848754883 3.7522430419921875 9.470049262046814 C 3.9252777099609375 9.505694270133972 4.2711181640625 9.607040882110596 4.46978759765625 9.533183217048645 C 4.461204528808594 9.533183217048645 4.4526214599609375 9.533183217048645 4.44415283203125 9.533183217048645 C 4.179679870605469 9.226273655891418 3.7489242553710938 9.020559668540955 3.4831924438476562 8.690390229225159 C 2.6063461303710938 7.60080087184906 1.7845458984375 5.923521995544434 2.3044509887695312 3.925589084625244 C 2.4362869262695312 3.4188560247421265 2.6453704833984375 2.9719340801239014 2.8681869506835938 2.5588446855545044 C 2.8766555786132812 2.563073754310608 2.8852386474609375 2.5671517848968506 2.8938217163085938 2.571380853652954 C 2.99578857421875 2.785401940345764 3.2235260009765625 2.942028522491455 3.3678359985351562 3.1208577156066895 C 3.815643310546875 3.675771951675415 4.368049621582031 4.175255179405212 4.9309844970703125 4.615229368209839 C 6.848899841308594 6.115491509437561 8.576156616210938 7.036975383758545 11.350204467773438 7.719365835189819 C 12.053901672363281 7.892908692359924 12.867233276367188 8.02521812915802 13.707801818847656 8.026426434516907 C 13.471710205078125 7.338598608970642 13.547584533691406 6.2263535261154175 13.733436584472656 5.5605772733688354 C 14.200927734375 3.8873764276504517 15.21624755859375 2.681638717651367 16.706039428710938 2.0354974269866943 C 17.062179565429688 1.8805322647094727 17.457229614257812 1.7678577899932861 17.871963500976562 1.6772348880767822 C 18.08551025390625 1.6517094373703003 18.299057006835938 1.6260329484939575 18.512603759765625 1.600960612297058 Z"/>
</g></svg> -->

<svg aria-hidden="true" style="position: absolute; width: 0; height: 0; overflow: hidden;" version="1.1" xmlns="http://www.w3.org/2000/svg" xmlns:xlink="http://www.w3.org/1999/xlink">
    <defs>
        <symbol id="icon-twitter" viewBox="0 0 32 32">
        <title>twitter</title>
            <path d="M21.439 3.089c0.096-0.005 0.209-0.008 0.323-0.008 1.879 0 3.576 0.781 4.784 2.036l0.002 0.002c1.241-0.206 2.354-0.597 3.368-1.148l-0.056 0.028 0.804-0.443c-0.407 1.229-1.133 2.261-2.080 3.031l-0.012 0.009c-0.205 0.195-0.439 0.363-0.693 0.497l-0.017 0.008v0.012c1.354-0.145 2.592-0.494 3.734-1.015l-0.075 0.031v0.012c-0.611 0.969-1.338 1.797-2.175 2.497l-0.017 0.014c-0.336 0.271-0.673 0.542-1.009 0.8 0.010 0.224 0.015 0.487 0.015 0.751 0 1.205-0.114 2.384-0.333 3.526l0.019-0.117c-1.615 7.249-5.893 12.172-12.663 14.289-1.607 0.478-3.453 0.753-5.363 0.753-1.339 0-2.647-0.135-3.91-0.392l0.125 0.021c-1.476-0.356-2.743-0.782-3.959-1.304l0.16 0.061c-0.723-0.318-1.323-0.635-1.9-0.987l0.070 0.040c-0.19-0.111-0.378-0.234-0.567-0.345 0.431 0.058 0.93 0.091 1.436 0.091 0.221 0 0.441-0.006 0.659-0.019l-0.030 0.001c0.636-0.098 1.259-0.074 1.846-0.197 1.46-0.288 2.759-0.774 3.945-1.438l-0.067 0.034c0.67-0.316 1.246-0.698 1.759-1.151l-0.008 0.007c-0.691-0.002-1.352-0.128-1.963-0.357l0.039 0.013c-1.945-0.672-3.445-2.183-4.087-4.089l-0.013-0.046c0.346 0.067 0.744 0.105 1.151 0.105 0.618 0 1.215-0.088 1.78-0.251l-0.045 0.011c-0.804-0.111-1.521-0.413-2.126-0.858l0.013 0.009c-1.836-1.097-3.047-3.074-3.047-5.334 0-0.067 0.001-0.135 0.003-0.202l-0 0.010c0.222 0.098 0.442 0.209 0.662 0.308 0.389 0.163 0.844 0.296 1.316 0.376l0.037 0.005c0.174 0.063 0.376 0.099 0.585 0.099 0.105 0 0.209-0.009 0.309-0.027l-0.011 0.002h-0.032c-0.325-0.369-0.855-0.628-1.183-1.034-1.011-1.154-1.628-2.676-1.628-4.341 0-0.538 0.064-1.061 0.186-1.562l-0.009 0.045c0.178-0.642 0.415-1.202 0.713-1.722l-0.019 0.036c0.011 0 0.021 0.012 0.032 0.012 0.173 0.255 0.365 0.477 0.581 0.674l0.003 0.003c0.572 0.689 1.203 1.295 1.896 1.826l0.028 0.020c2.201 1.802 4.86 3.131 7.773 3.791l0.127 0.024c0.867 0.229 1.865 0.367 2.893 0.381l0.009 0c-0.114-0.439-0.179-0.942-0.179-1.461 0-0.562 0.077-1.106 0.22-1.622l-0.010 0.042c0.489-1.962 1.841-3.534 3.618-4.316l0.041-0.016c0.409-0.18 0.889-0.333 1.388-0.435l0.047-0.008c0.261-0.037 0.524-0.062 0.786-0.098z"></path>
        </symbol>
    </defs>
</svg>
