<!-- <svg version="1.1" xmlns="http://www.w3.org/2000/svg" xmlns:xlink="http://www.w3.org/1999/xlink"><defs/><g>
<path d=" M 10.050758361816406 17.85367751121521 C 9.841560363769531 18.686955094337463 9.631217956542969 19.56010675430298 9.412864685058594 20.414227604866028 C 9.197601318359375 21.255812287330627 9.008430480957031 22.110084176063538 8.695320129394531 22.88370168209076 C 8.176216125488281 24.165260553359985 7.516807556152344 25.40316939353943 6.6517486572265625 26.40515661239624 C 6.077140808105469 27.07214117050171 6.199363708496094 26.805709838867188 6.026214599609375 26.76991379261017 C 5.894264221191406 26.742424845695496 5.882591247558594 26.613136172294617 5.856727600097656 26.425395727157593 C 5.715965270996094 25.40679430961609 5.811866760253906 24.230206966400146 5.8643951416015625 23.085790753364563 C 5.9239044189453125 21.782180309295654 6.197990417480469 20.698028326034546 6.452507019042969 19.614933609962463 C 6.937049865722656 17.55145013332367 7.398933410644531 15.527840733528137 7.8877105712890625 13.45121693611145 C 7.920440673828125 13.313017010688782 8.00787353515625 13.084647297859192 7.9776611328125 13.005956411361694 C 7.756103515625 12.428990602493286 7.612251281738281 11.911080718040466 7.549079895019531 11.305417656898499 C 7.4761810302734375 10.609886884689331 7.532142639160156 9.961328983306885 7.688468933105469 9.362311601638794 C 7.964500427246094 8.304440259933472 8.601249694824219 7.366795301437378 9.582351684570312 7.024089694023132 C 10.2060546875 6.807651996612549 10.89727783203125 6.905524730682373 11.316818237304688 7.156399130821228 C 11.749176025390625 7.414523363113403 12.045578002929688 7.822779536247253 12.184051513671875 8.401557803153992 C 12.331565856933594 9.017189383506775 12.222846984863281 9.752745270729065 12.104171752929688 10.293461918830872 C 11.837066650390625 11.511735796928406 11.486305236816406 12.426573991775513 11.167243957519531 13.602708220481873 C 11.009086608886719 14.186168670654297 10.830215454101562 14.785186052322388 10.97784423828125 15.414562106132507 C 11.113685607910156 15.992736220359802 11.414665222167969 16.391023874282837 11.825279235839844 16.689626336097717 C 12.250656127929688 16.99955666065216 12.754539489746094 17.169323563575745 13.449882507324219 17.14500641822815 C 14.677604675292969 17.10211157798767 15.530990600585938 16.317015171051025 16.101478576660156 15.57677710056305 C 17.013572692871094 14.392335772514343 17.566322326660156 12.793143630027771 17.775978088378906 10.890666842460632 C 17.84349822998047 10.277300834655762 17.893051147460938 9.572254657745361 17.845672607421875 8.876572847366333 C 17.758468627929688 7.592748403549194 17.356666564941406 6.560402512550354 16.719345092773438 5.759900212287903 C 16.11292266845703 4.997459530830383 15.253013610839844 4.39073920249939 14.207481384277344 4.049241900444031 C 13.170417785644531 3.710614323616028 11.734756469726562 3.5979398488998413 10.459541320800781 3.816190004348755 C 8.1424560546875 4.213118314743042 6.507896423339844 5.530322194099426 5.5453338623046875 7.348972797393799 C 5.040992736816406 8.300815343856812 4.7080841064453125 9.396295189857483 4.7080841064453125 10.75896155834198 C 4.7080841064453125 11.809734106063843 4.9674072265625 12.62398087978363 5.3860321044921875 13.25879430770874 C 5.518669128417969 13.46012818813324 5.714134216308594 13.625968098640442 5.844482421875 13.855999231338501 C 6.029075622558594 14.181939601898193 5.815986633300781 14.667225241661072 5.724662780761719 15.020050406455994 C 5.6149139404296875 15.445071816444397 5.603240966796875 16.03215718269348 5.1067962646484375 16.042276740074158 C 4.9014892578125 16.045901656150818 4.643196105957031 15.895618677139282 4.468788146972656 15.799105286598206 C 3.164276123046875 15.077898025512695 2.3715438842773438 13.76598048210144 2.0466461181640625 12.064837574958801 C 1.8492355346679688 11.031283378601074 1.849578857421875 9.82554566860199 2.0466461181640625 8.826579213142395 C 2.2370758056640625 7.8603880405426025 2.5914993286132812 6.968658685684204 2.9836883544921875 6.245638966560364 C 3.7979354858398438 4.742960214614868 4.990638732910156 3.541451573371887 6.4425506591796875 2.6831016540527344 C 7.558692932128906 2.0226117372512817 8.818000793457031 1.5601328611373901 10.34979248046875 1.3372005224227905 C 10.858253479003906 1.2627387046813965 11.384223937988281 1.2322289943695068 11.954826354980469 1.2054952383041382 C 13.622688293457031 1.1268043518066406 15.139373779296875 1.504701852798462 16.280921936035156 2.014908790588379 C 17.486099243164062 2.5536619424819946 18.44751739501953 3.2713953256607056 19.261077880859375 4.160708069801331 C 20.098556518554688 5.0755462646484375 20.708641052246094 6.140214323997498 21.09545135498047 7.4699543714523315 C 21.29663848876953 8.161860227584839 21.492904663085938 8.902249336242676 21.492904663085938 9.756974339485168 C 21.492904663085938 10.614720106124878 21.311630249023438 11.369910955429077 21.18505859375 12.125101804733276 C 20.711044311523438 14.953291535377502 19.36602020263672 17.265987992286682 17.347396850585938 18.582587718963623 C 16.857818603515625 18.901429295539856 16.265586853027344 19.195953726768494 15.593017578125 19.392001271247864 C 14.925941467285156 19.586387395858765 14.165138244628906 19.731837153434753 13.350204467773438 19.67519783973694 C 12.558616638183594 19.620975136756897 11.911453247070312 19.4057457447052 11.366714477539062 19.09823203086853 C 10.826553344726562 18.792983889579773 10.372566223144531 18.419315457344055 10.050758361816406 17.85367751121521 Z"/>
</g></svg> -->

<svg aria-hidden="true" style="position: absolute; width: 0; height: 0; overflow: hidden;" version="1.1" xmlns="http://www.w3.org/2000/svg" xmlns:xlink="http://www.w3.org/1999/xlink">
    <defs>
        <symbol id="icon-pinterest" viewBox="0 0 32 32">
        <title>pinterest</title>
            <path d="M13.717 20.468c-0.257 1.034-0.517 2.105-0.785 3.151-0.264 1.199-0.568 2.216-0.937 3.201l0.053-0.161c-0.642 1.665-1.491 3.102-2.536 4.372l0.021-0.027c-0.708 0.812-0.558 0.492-0.77 0.443-0.162-0.037-0.176-0.197-0.208-0.418-0.054-0.601-0.085-1.3-0.085-2.006 0-0.741 0.034-1.474 0.1-2.198l-0.007 0.093c0.113-1.575 0.371-3.035 0.762-4.44l-0.037 0.157c0.596-2.535 1.164-5.022 1.766-7.582 0.062-0.16 0.102-0.345 0.111-0.538l0-0.004c-0.254-0.61-0.44-1.317-0.525-2.055l-0.003-0.037c-0.025-0.219-0.040-0.473-0.040-0.731 0-0.593 0.077-1.168 0.222-1.716l-0.011 0.047c0.264-1.304 1.138-2.36 2.306-2.87l0.026-0.010c0.259-0.090 0.557-0.142 0.867-0.142 0.464 0 0.901 0.116 1.283 0.322l-0.014-0.007c0.547 0.332 0.939 0.874 1.065 1.512l0.002 0.014c0.051 0.281 0.080 0.605 0.080 0.936 0 0.494-0.065 0.973-0.188 1.428l0.009-0.038c-0.329 1.502-0.761 2.634-1.153 4.074-0.178 0.465-0.282 1.003-0.282 1.565 0 0.234 0.018 0.463 0.052 0.687l-0.003-0.025c0.146 0.654 0.521 1.203 1.035 1.57l0.008 0.005c0.496 0.359 1.116 0.574 1.786 0.574 0.075 0 0.15-0.003 0.224-0.008l-0.010 0.001c1.363-0.125 2.534-0.855 3.253-1.917l0.010-0.015c1.151-1.617 1.899-3.593 2.059-5.734l0.002-0.038c0.067-0.52 0.106-1.121 0.106-1.73 0-0.261-0.007-0.521-0.021-0.779l0.002 0.036c-0.058-1.457-0.571-2.785-1.399-3.856l0.012 0.016c-0.791-0.971-1.842-1.702-3.046-2.092l-0.046-0.013c-0.872-0.27-1.875-0.425-2.914-0.425-0.6 0-1.187 0.052-1.758 0.151l0.061-0.009c-2.653 0.405-4.854 2.043-6.028 4.3l-0.021 0.045c-0.649 1.19-1.031 2.607-1.031 4.112 0 0.030 0 0.059 0 0.089l-0-0.005c-0.002 0.051-0.003 0.111-0.003 0.171 0 1.077 0.312 2.082 0.85 2.928l-0.013-0.022c0.164 0.246 0.404 0.455 0.564 0.738 0.040 0.153 0.063 0.329 0.063 0.511 0 0.333-0.077 0.649-0.215 0.929l0.006-0.012c-0.135 0.529-0.15 1.243-0.761 1.255-0.297-0.034-0.564-0.139-0.791-0.299l0.005 0.004c-1.611-0.988-2.731-2.644-2.978-4.572l-0.003-0.031c-0.116-0.598-0.182-1.285-0.182-1.988s0.066-1.39 0.193-2.056l-0.011 0.068c0.674-3.249 2.658-5.939 5.363-7.54l0.053-0.029c1.383-0.825 3.008-1.407 4.743-1.642l0.066-0.007c0.581-0.087 1.264-0.145 1.958-0.16l0.017-0c0.169-0.009 0.366-0.013 0.565-0.013 1.722 0 3.358 0.367 4.835 1.028l-0.075-0.030c1.44 0.646 2.66 1.539 3.66 2.637l0.008 0.009c1.028 1.122 1.808 2.489 2.24 4.003l0.017 0.071c0.287 0.837 0.465 1.802 0.492 2.806l0 0.013c-0.047 1.061-0.182 2.061-0.401 3.031l0.022-0.114c-0.415 3.288-2.169 6.101-4.69 7.915l-0.034 0.023c-1.304 0.852-2.902 1.359-4.617 1.359-0.108 0-0.215-0.002-0.321-0.006l0.015 0c-0.904-0.056-1.737-0.314-2.469-0.729l0.028 0.015c-0.68-0.359-1.231-0.883-1.613-1.52l-0.010-0.018z"></path>
        </symbol>
    </defs>
</svg>
