<!-- <svg version="1.1" xmlns="http://www.w3.org/2000/svg" xmlns:xlink="http://www.w3.org/1999/xlink"><defs/><g>
<path d=" M 32.500030517578125 32.999892354011536 C 32.500030517578125 32.999892354011536 3.5000152587890625 32.999892354011536 3.5000152587890625 32.999892354011536 C 2.6714630126953125 32.999892354011536 1.9999237060546875 32.32822561264038 1.9999237060546875 31.499781250953674 C 1.9999237060546875 31.499781250953674 1.9999237060546875 2.49969744682312 1.9999237060546875 2.49969744682312 C 1.9999237060546875 1.6711020469665527 2.6714630126953125 1.0000394582748413 3.5000152587890625 1.0000394582748413 C 3.5000152587890625 1.0000394582748413 32.500030517578125 1.0000394582748413 32.500030517578125 1.0000394582748413 C 33.328468322753906 1.0000394582748413 34.00000762939453 1.6711020469665527 34.00000762939453 2.49969744682312 C 34.00000762939453 2.49969744682312 34.00000762939453 31.499781250953674 34.00000762939453 31.499781250953674 C 34.00000762939453 32.32822561264038 33.328468322753906 32.999892354011536 32.500030517578125 32.999892354011536 Z M 31.00005340576172 3.9999595880508423 C 31.00005340576172 3.9999595880508423 4.999992370605469 3.9999595880508423 4.999992370605469 3.9999595880508423 C 4.999992370605469 3.9999595880508423 4.999992370605469 29.999519109725952 4.999992370605469 29.999519109725952 C 4.999992370605469 29.999519109725952 31.00005340576172 29.999519109725952 31.00005340576172 29.999519109725952 C 31.00005340576172 29.999519109725952 31.00005340576172 3.9999595880508423 31.00005340576172 3.9999595880508423 Z M 8.500053405761719 5.499617576599121 C 8.500053405761719 5.499617576599121 13.999855041503906 5.499617576599121 13.999855041503906 5.499617576599121 C 13.999855041503906 5.499617576599121 13.999969482421875 5.499617576599121 13.999969482421875 5.499617576599121 C 14.828407287597656 5.499617576599121 15.499946594238281 6.171284317970276 15.499946594238281 6.999879717826843 C 15.499946594238281 7.82832407951355 14.828407287597656 8.499537706375122 13.999969482421875 8.499537706375122 C 13.999969482421875 8.499537706375122 13.999969482421875 8.499537706375122 13.999969482421875 8.499537706375122 C 13.999969482421875 8.499537706375122 9.500038146972656 8.499537706375122 9.500038146972656 8.499537706375122 C 9.500038146972656 8.499537706375122 9.500038146972656 12.999568939208984 9.500038146972656 12.999568939208984 C 9.500038146972656 12.999568939208984 9.500038146972656 12.999568939208984 9.500038146972656 12.999568939208984 C 9.500038146972656 13.828164339065552 8.828384399414062 14.499831080436707 7.999946594238281 14.499831080436707 C 7.171623229980469 14.499831080436707 6.499969482421875 13.828164339065552 6.499969482421875 12.999568939208984 C 6.499969482421875 12.999568939208984 6.499969482421875 12.999568939208984 6.499969482421875 12.999568939208984 C 6.499969482421875 12.999568939208984 6.499969482421875 7.499967098236084 6.499969482421875 7.499967098236084 C 6.499969482421875 7.499967098236084 6.499969482421875 7.499967098236084 6.499969482421875 7.499967098236084 C 6.499969482421875 7.499967098236084 6.499969482421875 5.499617576599121 6.499969482421875 5.499617576599121 C 6.499969482421875 5.499617576599121 8.500053405761719 5.499617576599121 8.500053405761719 5.499617576599121 C 8.500053405761719 5.499617576599121 8.500053405761719 5.499617576599121 8.500053405761719 5.499617576599121 Z M 6.499969482421875 20.99975872039795 C 6.499969482421875 20.99975872039795 6.499969482421875 20.99975872039795 6.499969482421875 20.99975872039795 C 6.499969482421875 20.171314358711243 7.171623229980469 19.499496579170227 7.999946594238281 19.499496579170227 C 8.828384399414062 19.499496579170227 9.500038146972656 20.171314358711243 9.500038146972656 20.99975872039795 C 9.500038146972656 20.99975872039795 9.500038146972656 20.99975872039795 9.500038146972656 20.99975872039795 C 9.500038146972656 20.99975872039795 9.500038146972656 25.49933683872223 9.500038146972656 25.49933683872223 C 9.500038146972656 25.49933683872223 13.999969482421875 25.49933683872223 13.999969482421875 25.49933683872223 C 13.999969482421875 25.49933683872223 13.999969482421875 25.499940991401672 13.999969482421875 25.499940991401672 C 14.828407287597656 25.499940991401672 15.499946594238281 26.171003580093384 15.499946594238281 26.99959897994995 C 15.499946594238281 27.828043341636658 14.828407287597656 28.499861121177673 13.999969482421875 28.499861121177673 C 13.999969482421875 28.499861121177673 13.999855041503906 28.499861121177673 13.999855041503906 28.499861121177673 C 13.999855041503906 28.499861121177673 8.500053405761719 28.499861121177673 8.500053405761719 28.499861121177673 C 8.500053405761719 28.499861121177673 8.500053405761719 28.499861121177673 8.500053405761719 28.499861121177673 C 8.500053405761719 28.499861121177673 6.499969482421875 28.499861121177673 6.499969482421875 28.499861121177673 C 6.499969482421875 28.499861121177673 6.499969482421875 26.49951159954071 6.499969482421875 26.49951159954071 C 6.499969482421875 26.49951159954071 6.499969482421875 26.49951159954071 6.499969482421875 26.49951159954071 C 6.499969482421875 26.49951159954071 6.499969482421875 20.99975872039795 6.499969482421875 20.99975872039795 Z M 21.999961853027344 5.499617576599121 C 21.999961853027344 5.499617576599121 22.000076293945312 5.499617576599121 22.000076293945312 5.499617576599121 C 22.000076293945312 5.499617576599121 27.49999237060547 5.499617576599121 27.49999237060547 5.499617576599121 C 27.49999237060547 5.499617576599121 27.49999237060547 5.499617576599121 27.49999237060547 5.499617576599121 C 27.49999237060547 5.499617576599121 29.499961853027344 5.499617576599121 29.499961853027344 5.499617576599121 C 29.499961853027344 5.499617576599121 29.499961853027344 7.499967098236084 29.499961853027344 7.499967098236084 C 29.499961853027344 7.499967098236084 29.499961853027344 7.499967098236084 29.499961853027344 7.499967098236084 C 29.499961853027344 7.499967098236084 29.499961853027344 12.999568939208984 29.499961853027344 12.999568939208984 C 29.499961853027344 12.999568939208984 29.499961853027344 12.999568939208984 29.499961853027344 12.999568939208984 C 29.499961853027344 13.828164339065552 28.82830810546875 14.499831080436707 27.999984741210938 14.499831080436707 C 27.171546936035156 14.499831080436707 26.499893188476562 13.828164339065552 26.499893188476562 12.999568939208984 C 26.499893188476562 12.999568939208984 26.499893188476562 12.999568939208984 26.499893188476562 12.999568939208984 C 26.499893188476562 12.999568939208984 26.499893188476562 8.499537706375122 26.499893188476562 8.499537706375122 C 26.499893188476562 8.499537706375122 21.999961853027344 8.499537706375122 21.999961853027344 8.499537706375122 C 21.999961853027344 8.499537706375122 21.999961853027344 8.499537706375122 21.999961853027344 8.499537706375122 C 21.171524047851562 8.499537706375122 20.499984741210938 7.82832407951355 20.499984741210938 6.999879717826843 C 20.499984741210938 6.171284317970276 21.171524047851562 5.499617576599121 21.999961853027344 5.499617576599121 Z M 21.999961853027344 25.499940991401672 C 21.999961853027344 25.499940991401672 21.999961853027344 25.49933683872223 21.999961853027344 25.49933683872223 C 21.999961853027344 25.49933683872223 26.499893188476562 25.49933683872223 26.499893188476562 25.49933683872223 C 26.499893188476562 25.49933683872223 26.499893188476562 20.99975872039795 26.499893188476562 20.99975872039795 C 26.499893188476562 20.99975872039795 26.499893188476562 20.99975872039795 26.499893188476562 20.99975872039795 C 26.499893188476562 20.171314358711243 27.171546936035156 19.499496579170227 27.999984741210938 19.499496579170227 C 28.82830810546875 19.499496579170227 29.499961853027344 20.171314358711243 29.499961853027344 20.99975872039795 C 29.499961853027344 20.99975872039795 29.499961853027344 20.99975872039795 29.499961853027344 20.99975872039795 C 29.499961853027344 20.99975872039795 29.499961853027344 26.49951159954071 29.499961853027344 26.49951159954071 C 29.499961853027344 26.49951159954071 29.499961853027344 26.49951159954071 29.499961853027344 26.49951159954071 C 29.499961853027344 26.49951159954071 29.499961853027344 28.499861121177673 29.499961853027344 28.499861121177673 C 29.499961853027344 28.499861121177673 27.49999237060547 28.499861121177673 27.49999237060547 28.499861121177673 C 27.49999237060547 28.499861121177673 27.49999237060547 28.499861121177673 27.49999237060547 28.499861121177673 C 27.49999237060547 28.499861121177673 22.000076293945312 28.499861121177673 22.000076293945312 28.499861121177673 C 22.000076293945312 28.499861121177673 21.999961853027344 28.499861121177673 21.999961853027344 28.499861121177673 C 21.171524047851562 28.499861121177673 20.499984741210938 27.828043341636658 20.499984741210938 26.99959897994995 C 20.499984741210938 26.171003580093384 21.171524047851562 25.499940991401672 21.999961853027344 25.499940991401672 Z"/>
</g></svg> -->

<!-- <svg version="1.1" xmlns="http://www.w3.org/2000/svg" xmlns:xlink="http://www.w3.org/1999/xlink"><defs/><g>
<symbol id="icon-IMAGE" viewBox="0 0 34 32">
<path d="M30.588 31.059c0 0-27.294 0-27.294 0-0.78 0-1.412-0.632-1.412-1.412 0 0 0-27.294 0-27.294 0-0.78 0.632-1.411 1.412-1.411 0 0 27.294 0 27.294 0 0.78 0 1.412 0.632 1.412 1.411 0 0 0 27.294 0 27.294 0 0.78-0.632 1.412-1.412 1.412zM29.177 3.765c0 0-24.471 0-24.471 0s0 24.47 0 24.47c0 0 24.471 0 24.471 0s0-24.47 0-24.47zM8 5.176c0 0 5.176 0 5.176 0s0 0 0 0c0.78 0 1.412 0.632 1.412 1.412s-0.632 1.411-1.412 1.411c0 0 0 0 0 0s-4.235 0-4.235 0c0 0 0 4.235 0 4.235s0 0 0 0c0 0.78-0.632 1.412-1.412 1.412s-1.412-0.632-1.412-1.412c0 0 0 0 0 0s0-5.176 0-5.176c0 0 0 0 0 0s0-1.883 0-1.883c0 0 1.882 0 1.882 0s0 0 0 0zM6.118 19.764c0 0 0 0 0 0 0-0.78 0.632-1.412 1.412-1.412s1.412 0.632 1.412 1.412c0 0 0 0 0 0s0 4.235 0 4.235c0 0 4.235 0 4.235 0s0 0.001 0 0.001c0.78 0 1.412 0.632 1.412 1.411s-0.632 1.412-1.412 1.412c0 0-0 0-0 0s-5.176 0-5.176 0c0 0 0 0 0 0s-1.882 0-1.882 0c0 0 0-1.883 0-1.883s0 0 0 0 0-5.176 0-5.176zM20.706 5.176c0 0 0 0 0 0s5.176 0 5.176 0c0 0 0 0 0 0s1.882 0 1.882 0c0 0 0 1.883 0 1.883s0 0 0 0 0 5.176 0 5.176c0 0 0 0 0 0 0 0.78-0.632 1.412-1.412 1.412s-1.412-0.632-1.412-1.412c0 0 0 0 0 0s0-4.235 0-4.235c0 0-4.235 0-4.235 0s0 0 0 0c-0.78 0-1.412-0.632-1.412-1.411s0.632-1.412 1.412-1.412zM20.706 24c0 0 0-0.001 0-0.001s4.235 0 4.235 0c0 0 0-4.235 0-4.235s0 0 0 0c0-0.78 0.632-1.412 1.412-1.412s1.412 0.632 1.412 1.412c0 0 0 0 0 0s0 5.176 0 5.176c0 0 0 0 0 0s0 1.883 0 1.883c0 0-1.882 0-1.882 0s0 0 0 0-5.176 0-5.176 0c0 0-0 0-0 0-0.78 0-1.412-0.632-1.412-1.412s0.632-1.411 1.412-1.411z"></path>
</symbol>
</g></svg> -->


<svg aria-hidden="true" style="position: absolute; width: 0; height: 0; overflow: hidden;" version="1.1" xmlns="http://www.w3.org/2000/svg" xmlns:xlink="http://www.w3.org/1999/xlink">
    <defs>
        <symbol id="icon-IMAGE" viewBox="0 0 32 32">
        <title>square</title>
            <path d="M30.5 32h-29c-0.828 0-1.5-0.672-1.5-1.5v0-29c0-0.828 0.672-1.5 1.5-1.5v0h29c0.828 0 1.5 0.672 1.5 1.5v0 29c0 0.828-0.672 1.5-1.5 1.5v0zM29 3h-26v26h26v-26zM6.5 4.5h5.5c0.828 0 1.5 0.672 1.5 1.5s-0.672 1.5-1.5 1.5v0h-4.5v4.5c0 0.828-0.672 1.5-1.5 1.5s-1.5-0.672-1.5-1.5v0 0-7.5h2zM4.5 20v0c0-0.828 0.672-1.5 1.5-1.5s1.5 0.672 1.5 1.5v0 0 4.5h4.5c0.828 0 1.5 0.672 1.5 1.5s-0.672 1.5-1.5 1.5v0h-7.5v-7.5zM20 4.5h7.5v7.5c0 0.828-0.672 1.5-1.5 1.5s-1.5-0.672-1.5-1.5v0 0-4.5h-4.5c-0.828 0-1.5-0.672-1.5-1.5s0.672-1.5 1.5-1.5v0zM20 24.5h4.5v-4.5c0-0.828 0.672-1.5 1.5-1.5s1.5 0.672 1.5 1.5v0 0 7.5h-7.5c-0.828 0-1.5-0.672-1.5-1.5s0.672-1.5 1.5-1.5v0z"></path>
        </symbol>
    </defs>
</svg>