<!-- <svg version="1.1" xmlns="http://www.w3.org/2000/svg" xmlns:xlink="http://www.w3.org/1999/xlink"><defs/><g>
<path d=" M 31.49993896484375 33.999786496162415 C 31.49993896484375 33.999786496162415 2.4999237060546875 33.999786496162415 2.4999237060546875 33.999786496162415 C 1.671600341796875 33.999786496162415 1.00006103515625 33.3279687166214 1.00006103515625 32.49952435493469 C 1.00006103515625 32.49952435493469 1.00006103515625 3.499440550804138 1.00006103515625 3.499440550804138 C 1.00006103515625 2.671600341796875 1.671600341796875 1.9997825622558594 2.4999237060546875 1.9997825622558594 C 2.4999237060546875 1.9997825622558594 31.49993896484375 1.9997825622558594 31.49993896484375 1.9997825622558594 C 32.32837677001953 1.9997825622558594 33.000030517578125 2.671600341796875 33.000030517578125 3.499440550804138 C 33.000030517578125 3.499440550804138 33.000030517578125 32.49952435493469 33.000030517578125 32.49952435493469 C 33.000030517578125 33.3279687166214 32.32837677001953 33.999786496162415 31.49993896484375 33.999786496162415 Z M 29.999961853027344 4.99970269203186 C 29.999961853027344 4.99970269203186 4.0000152587890625 4.99970269203186 4.0000152587890625 4.99970269203186 C 4.0000152587890625 4.99970269203186 4.0000152587890625 30.999866366386414 4.0000152587890625 30.999866366386414 C 4.0000152587890625 30.999866366386414 29.999961853027344 30.999866366386414 29.999961853027344 30.999866366386414 C 29.999961853027344 30.999866366386414 29.999961853027344 4.99970269203186 29.999961853027344 4.99970269203186 Z M 6.215362548828125 18.238500356674194 C 6.215362548828125 18.238500356674194 6.2146759033203125 18.237292051315308 6.2146759033203125 18.237292051315308 C 6.2146759033203125 18.237292051315308 10.214614868164062 15.737459301948547 10.214614868164062 15.737459301948547 C 10.214614868164062 15.737459301948547 10.215415954589844 15.738667607307434 10.215415954589844 15.738667607307434 C 10.4437255859375 15.598051071166992 10.712318420410156 15.516943573951721 10.999908447265625 15.516943573951721 C 11.311302185058594 15.516943573951721 11.600379943847656 15.611795544624329 11.840133666992188 15.774463653564453 C 11.840133666992188 15.774463653564453 11.845970153808594 15.765552401542664 11.845970153808594 15.765552401542664 C 11.845970153808594 15.765552401542664 18.47667694091797 20.185835480690002 18.47667694091797 20.185835480690002 C 18.47667694091797 20.185835480690002 26.11492156982422 14.794528007507324 26.11492156982422 14.794528007507324 C 26.36302947998047 14.612829089164734 26.668930053710938 14.505440950393677 27.00000762939453 14.505440950393677 C 27.828330993652344 14.505440950393677 28.499984741210938 15.176654577255249 28.499984741210938 16.005098938941956 C 28.499984741210938 16.505186319351196 28.254966735839844 16.94803023338318 27.878456115722656 17.220503091812134 C 27.878456115722656 17.220503091812134 27.87891387939453 17.221107244491577 27.87891387939453 17.221107244491577 C 27.87891387939453 17.221107244491577 19.378929138183594 23.22140061855316 19.378929138183594 23.22140061855316 C 19.378929138183594 23.22140061855316 19.37847137451172 23.22079646587372 19.37847137451172 23.22079646587372 C 19.131507873535156 23.399625658988953 18.828125 23.50520133972168 18.500022888183594 23.50520133972168 C 18.179359436035156 23.50520133972168 17.88238525390625 23.4044588804245 17.638626098632812 23.232728481292725 C 17.638626098632812 23.232728481292725 10.982398986816406 18.79522705078125 10.982398986816406 18.79522705078125 C 10.982398986816406 18.79522705078125 7.846832275390625 20.754947304725647 7.846832275390625 20.754947304725647 C 7.6058197021484375 20.920183062553406 7.3142242431640625 21.017300605773926 6.999969482421875 21.017300605773926 C 6.171531677246094 21.017300605773926 5.499992370605469 20.34548282623291 5.499992370605469 19.517038464546204 C 5.499992370605469 18.976472854614258 5.786323547363281 18.502515077590942 6.215362548828125 18.238500356674194 Z"/>
</g></svg> -->


<svg aria-hidden="true" style="position: absolute; width: 0; height: 0; overflow: hidden;" version="1.1" xmlns="http://www.w3.org/2000/svg" xmlns:xlink="http://www.w3.org/1999/xlink">
    <defs>
        <symbol id="icon-LINE-GRAPH" viewBox="0 0 32 32">
        <title>graph</title>
            <path d="M30.5 32h-29c-0.828 0-1.5-0.672-1.5-1.5v0-29c0-0.828 0.672-1.5 1.5-1.5v0h29c0.828 0 1.5 0.672 1.5 1.5v0 29c0 0.828-0.672 1.5-1.5 1.5v0zM29 3h-26v26h26v-26zM5.215 16.24v0l4-2.5c0.225-0.138 0.497-0.22 0.789-0.22 0.311 0 0.601 0.093 0.842 0.253l-0.006-0.004h0.006l6.631 4.42 7.638-5.4c0.244-0.179 0.55-0.286 0.881-0.286 0.829 0 1.501 0.672 1.501 1.501 0 0.498-0.242 0.939-0.615 1.212l-0.004 0.003-8.5 6c-0.242 0.18-0.547 0.289-0.878 0.29h-0c-0.323-0.003-0.622-0.107-0.865-0.283l0.004 0.003-6.657-4.43-3.135 1.95c-0.236 0.169-0.529 0.27-0.847 0.27h-0c-0.001 0-0.002 0-0.003 0-0.828 0-1.5-0.672-1.5-1.5 0-0.539 0.284-1.012 0.712-1.276l0.006-0.004z"></path>
        </symbol>
    </defs>
</svg>
